<svg xmlns="http://www.w3.org/2000/svg" aria-hidden="true" style="position:absolute;width:0;height:0;overflow:hidden">
  <defs>
    <symbol id="online" viewBox="0 0 32 32">
      <path fill="#fff" d="M32 16c0 8.837-7.163 16-16 16S0 24.837 0 16 7.163 0 16 0s16 7.163 16 16" style="fill:var(--color1, #fff)"/>
      <path fill="#38cd3e" d="M26.667 16c0 5.891-4.776 10.667-10.667 10.667S5.333 21.891 5.333 16 10.109 5.333 16 5.333 26.667 10.109 26.667 16" style="fill:var(--color2, #38cd3e)"/>
    </symbol>
    <symbol id="login" viewBox="0 0 32 32">
      <path stroke-linecap="round" stroke-linejoin="round" stroke-width="3.2" d="M20 4h1.6c2.24 0 3.36 0 4.216.436a4 4 0 0 1 1.748 1.748C28 7.04 28 8.16 28 10.4v11.2c0 2.24 0 3.36-.436 4.216a4 4 0 0 1-1.748 1.748C24.96 28 23.84 28 21.6 28H20M13.333 9.333 20 16m0 0-6.667 6.667M20 16H4"/>
    </symbol>
    <symbol id="ukraine" viewBox="0 0 32 32">
      <path fill="#ffda44" d="M16 32c8.837 0 16-7.163 16-16S24.837 0 16 0 0 7.163 0 16s7.163 16 16 16" style="fill:var(--color3, #ffda44)"/>
      <path fill="#338af3" d="M0 16C0 7.164 7.163 0 16 0s16 7.163 16 16z" style="fill:var(--color4, #338af3)"/>
    </symbol>
    <symbol id="book" viewBox="0 0 32 32">
      <path d="M4.9 2.56c-1.008.116-1.732.44-2.438 1.094-.584.54-.962 1.218-1.162 2.08-.096.404-.1.812-.1 8.266s.004 7.862.1 8.266c.188.814.494 1.39 1.038 1.96.53.556 1.15.91 1.956 1.118.396.102.646.114 3.572.152 3.54.044 3.576.048 4.348.436.658.328 1.15.84 1.916 1.988.706 1.056.894 1.274 1.256 1.446.556.262 1.26.124 1.686-.332.106-.114.466-.616.796-1.114.762-1.146 1.256-1.658 1.918-1.988.772-.388.808-.392 4.348-.436 2.982-.04 3.17-.048 3.6-.158a4.04 4.04 0 0 0 2.938-2.936l.006-.028.122-.48v-7.868c0-7.48-.004-7.886-.1-8.292a3.93 3.93 0 0 0-1.183-2.098l-.003-.002a3.9 3.9 0 0 0-1.915-1l-.025-.004c-.412-.088-.74-.096-3.468-.094-3.216.004-3.738.038-4.726.296a6.67 6.67 0 0 0-3.104 1.896l-.004.005-.272.308-.272-.308a6.64 6.64 0 0 0-3.069-1.891l-.047-.011c-.94-.242-1.438-.276-4.452-.296a71 71 0 0 0-3.37.028l.111-.003zm5.206 2.986c.616.026 1.3.084 1.52.13 1.304.272 2.43 1.398 2.696 2.698.046.22.106.904.132 1.52.048 1.078.076 13.892.03 13.892-.012 0-.15-.084-.306-.188a7.5 7.5 0 0 0-1.492-.723l-.054-.017c-.864-.29-1.114-.31-4.446-.352-2.094-.026-3.156-.058-3.29-.1-.238-.076-.602-.47-.658-.714-.062-.272-.092-13.986-.032-14.802.048-.636.068-.728.19-.89.256-.336.414-.408.982-.452.748-.056 3.428-.058 4.728-.002m16.93.034a1 1 0 0 1 .435.285l.001.001c.222.222.258.29.296.566.058.404.06 14.722.002 15.124a.87.87 0 0 1-.256.546c-.11.13-.247.233-.403.301l-.007.003c-.134.042-1.196.074-3.29.1-3.332.042-3.582.062-4.446.352a7.6 7.6 0 0 0-1.578.759l.032-.019a3 3 0 0 1-.291.181l-.015.007c-.044 0-.018-12.806.03-13.892.026-.616.084-1.3.13-1.52a3.62 3.62 0 0 1 2.673-2.695l.025-.005c.22-.046.82-.104 1.332-.128 1.04-.048 5.044-.022 5.33.034"/>
    </symbol>
    <symbol id="eye" viewBox="0 0 32 32">
      <path d="M.213.213 0 .427v1.835l5.699 5.71-.627.568c-1.67 1.51-3.581 3.931-4.771 6.045L0 15.119v1.806l.328.563a27.2 27.2 0 0 0 4.279 5.525l.002.001c1.693 1.686 3.133 2.75 4.976 3.672a14.1 14.1 0 0 0 4.773 1.473l.07.007c.763.093 2.477.077 3.253-.03a15.3 15.3 0 0 0 5.817-2.001l-.071.039.307-.174 6.005 5.998h1.835l.214-.213.213-.214v-1.838L2.267-.001H.429L.215.212zm14.565 3.579c-.734.066-1.795.254-2.128.379a1.72 1.72 0 0 0-.844.715l-.004.008c-.184.314-.229.891-.099 1.282.178.531.746.994 1.304 1.059.154.019.466-.011.81-.078 2.525-.494 4.934-.142 7.296 1.066.957.49 2.147 1.302 3.021 2.062.886.771 2.123 2.091 2.947 3.142.546.696 1.72 2.445 1.72 2.56 0 .184-1.106 1.819-1.928 2.853a7 7 0 0 0-.507.702l-.016.028c-.253.496-.184 1.149.171 1.63.547.739 1.642.858 2.309.25.592-.539 2.229-2.856 2.95-4.174l.221-.405v-1.797l-.328-.563a35 35 0 0 0-1.795-2.693c-1.493-1.973-3.454-3.926-5.157-5.133-1.36-.963-3.024-1.81-4.48-2.278a14 14 0 0 0-4.306-.661q-.61 0-1.209.05zm-3.946 9.97a5.5 5.5 0 0 0-.52 2.345c0 1.54.628 2.934 1.641 3.939a5.54 5.54 0 0 0 3.94 1.641 5.5 5.5 0 0 0 2.378-.534l-.034.014.451-.211 2.701 2.696-.562.272c-1.573.763-3.686 1.205-5.362 1.123-3.834-.187-7.57-2.542-10.797-6.802-.533-.706-1.47-2.133-1.47-2.242 0-.101.674-1.165 1.166-1.845a24 24 0 0 1 2.96-3.348l.013-.012.624-.57 3.08 3.08-.211.451zm5.149 4.734c-.307.021-.872-.112-1.218-.288-.738-.374-1.27-1.275-1.27-2.152v-.296l2.722 2.72z"/>
    </symbol>
    <symbol id="heart" viewBox="0 0 32 32">
      <path d="M8.453 2.832c-2.569.267-4.942 1.769-6.329 4.005A8.4 8.4 0 0 0 .853 11.3v.035-.002c0 1.903.564 3.58 1.748 5.199.375.513 12.474 12.644 12.81 12.843s.843.199 1.179 0 12.434-12.33 12.81-12.843c1.184-1.618 1.748-3.296 1.748-5.199v-.043a8.42 8.42 0 0 0-2.472-5.971c-1.788-1.804-4.293-2.729-6.769-2.501-1.172.107-1.969.319-2.946.779-.956.45-1.583.894-2.414 1.703l-.546.534-.546-.534c-.831-.81-1.457-1.253-2.414-1.703a8.4 8.4 0 0 0-3.645-.816q-.498 0-.982.056l.039-.004zm1.892 2.478a6.8 6.8 0 0 1 1.814.58l-.04-.018c.668.335 1.093.671 2.122 1.68.572.561 1.124 1.063 1.227 1.118.252.132.814.132 1.066 0 .103-.054.655-.558 1.227-1.119.608-.598 1.199-1.126 1.424-1.275a6.17 6.17 0 0 1 3.752-1.032l-.014-.001c.79.046 1.359.185 2.166.53 1.502.642 2.751 2.01 3.28 3.59a6 6 0 0 1 .327 1.971 6.08 6.08 0 0 1-1.206 3.642l.012-.016c-.208.283-2.187 2.303-5.906 6.027l-5.594 5.6-5.594-5.6c-3.719-3.724-5.698-5.744-5.906-6.027-1.586-2.165-1.594-5.105-.015-7.227 1.028-1.381 2.398-2.186 4.208-2.47.332-.053 1.191-.028 1.652.047z"/>
    </symbol>
    <symbol id="star" viewBox="0 0 32 32">
      <path d="M13.683 8.049c-1.517 2.878-1.683 3.136-2.291 3.597-.339.256-.777.48-1.154.589-.16.047-1.551.301-3.091.565s-2.857.493-2.925.508c-.109.026.047.205 1.387 1.579 2.778 2.85 2.899 2.987 3.162 3.535.51 1.067.508 1.161-.021 4.823-.07.321-.217 1.352-.353 2.388l-.068.633c.011.006 1.231-.585 2.711-1.312 1.481-.73 2.861-1.38 3.068-1.446.307-.1.489-.119 1.039-.117.578.002.719.021 1.067.143.22.077 1.587.725 3.04 1.442s2.647 1.284 2.656 1.261c.009-.021-.179-1.404-.418-3.072-.469-3.279-.471-3.324-.26-4.113a3.2 3.2 0 0 1 .614-1.237c.126-.162 1.141-1.229 2.255-2.372 1.585-1.63 2.005-2.089 1.935-2.118-.358-.091-1.302-.265-2.25-.424l-.532-.074a115 115 0 0 1-4.106-.708l1.066.17a3.85 3.85 0 0 1-2.09-1.388l-.007-.009c-.1-.137-.802-1.427-1.557-2.863a103 103 0 0 0-1.925-3.675l.515 1.021c-.019-.021-.678 1.182-1.466 2.675z"/>
    </symbol>
    <symbol id="close" viewBox="0 0 32 32">
      <path d="M7.493 6.874a1.257 1.257 0 0 0-.606 1.667l-.003-.008c.083.184.95 1.083 3.718 3.854L14.212 16l-3.61 3.613c-2.768 2.771-3.635 3.67-3.718 3.854-.211.467-.11 1.056.242 1.407.351.352.94.453 1.407.242.184-.083 1.083-.95 3.854-3.718L16 17.788l3.613 3.61c2.771 2.768 3.67 3.635 3.854 3.718.467.211 1.056.11 1.407-.242.352-.351.453-.94.242-1.407-.083-.184-.95-1.083-3.718-3.854L17.788 16l3.61-3.613c2.768-2.771 3.635-3.67 3.718-3.854.211-.467.11-1.056-.242-1.407-.351-.352-.94-.453-1.407-.242-.184.083-1.083.95-3.854 3.718L16 14.212l-3.613-3.61c-2.771-2.768-3.67-3.635-3.854-3.718-.305-.138-.753-.142-1.04-.01"/>
    </symbol>
  </defs>
</svg>